<svg width="16" height="16" viewBox="0 0 16 16" fill="none" xmlns="http://www.w3.org/2000/svg">
<g id="btn_delete_g">
<path id="Union" fill-rule="evenodd" clip-rule="evenodd" d="M11 4H13C13.3 4 13.5 4.2 13.5 4.5C13.5 4.8 13.3 5 13 5H2.80005C2.50005 5 2.30005 4.8 2.30005 4.5C2.30005 4.2 2.50005 4 2.80005 4H4.80005C5.00005 4 5.20005 3.8 5.30005 3.6L5.40005 2.8C5.50005 2.2 6.00005 1.8 6.60005 1.8H9.10005C9.60005 1.8 10.2 2.2 10.3 2.8L10.5 3.6C10.6 3.8 10.8 4 11 4ZM6.40005 3L6.20005 3.8V4H9.70005C9.70005 4 9.60005 3.9 9.60005 3.8L9.50005 3C9.40005 2.9 9.30005 2.8 9.20005 2.8H6.70005C6.50005 2.8 6.40005 2.9 6.40005 3ZM11.7 6.6C11.7 6.3 12 6.1 12.2 6.1C12.5 6.1 12.7 6.3 12.7 6.6C12.7 6.7 12.4 10.9 12.2 12.7C12.1 13.8 11.4 14.5 10.3 14.5H7.99995H5.59995C4.49995 14.5 3.79995 13.8 3.69995 12.7C3.49995 10.9 3.19995 6.6 3.19995 6.6C3.19995 6.4 3.39995 6.1 3.69995 6.1C3.89995 6.1 4.19995 6.3 4.19995 6.6C4.19995 6.7 4.49995 10.9 4.69995 12.7C4.79995 13.3 5.09995 13.6 5.59995 13.6H10.3C10.8 13.6 11.1 13.3 11.2 12.7C11.4 10.9 11.7 6.6 11.7 6.6ZM7.5 11.3V8.1C7.5 7.8 7.3 7.6 7 7.6C6.7 7.6 6.5 7.8 6.5 8.1V11.4C6.5 11.7 6.7 11.9 7 11.9C7.3 11.9 7.5 11.6 7.5 11.3ZM9.30005 8.1V11.3C9.30005 11.6 9.10005 11.8 8.80005 11.9C8.50005 11.9 8.30005 11.7 8.30005 11.4V8.1C8.30005 7.8 8.50005 7.6 8.80005 7.6C9.10005 7.6 9.30005 7.8 9.30005 8.1Z" fill="#A9A9A9"/>
</g>
</svg>
