<svg width="296" height="88" viewBox="0 0 296 88" fill="none" xmlns="http://www.w3.org/2000/svg">
<rect x="18" y="2" width="276" height="84" rx="14" fill="white"/>
<rect x="18" y="2" width="276" height="84" rx="14" stroke="#FF0000" stroke-width="4"/>
<circle cx="64" cy="44" r="6" stroke="#FF0000" stroke-width="4"/>
<path d="M67.5317 24.3045C66.7966 24 65.8647 24 64.001 24C62.1372 24 61.2053 24 60.4702 24.3045C59.4901 24.7105 58.7114 25.4892 58.3054 26.4693C58.1201 26.9167 58.0476 27.437 58.0192 28.196C57.9775 29.3114 57.4055 30.3438 56.4389 30.9019C55.4722 31.4599 54.2922 31.4391 53.3054 30.9175C52.6339 30.5626 52.147 30.3652 51.6668 30.302C50.6151 30.1636 49.5513 30.4486 48.7097 31.0944C48.0785 31.5788 47.6125 32.3858 46.6806 33.9999C45.7488 35.6139 45.2828 36.421 45.179 37.2098C45.0405 38.2616 45.3255 39.3253 45.9713 40.167C46.2661 40.5511 46.6804 40.8741 47.3233 41.278C48.2686 41.872 48.8768 42.8837 48.8767 44C48.8766 45.1163 48.2685 46.1279 47.3233 46.7217C46.6803 47.1257 46.2659 47.4487 45.9711 47.8329C45.3253 48.6745 45.0403 49.7383 45.1788 50.7901C45.2826 51.5789 45.7486 52.3859 46.6804 54C47.6123 55.6141 48.0783 56.4211 48.7095 56.9055C49.5511 57.5513 50.6149 57.8363 51.6667 57.6978C52.1468 57.6346 52.6336 57.4373 53.3051 57.0824C54.2919 56.5608 55.4721 56.54 56.4388 57.0981C57.4055 57.6562 57.9775 58.6887 58.0192 59.8041C58.0476 60.563 58.1201 61.0833 58.3054 61.5307C58.7114 62.5108 59.4901 63.2895 60.4702 63.6955C61.2053 64 62.1372 64 64.001 64C65.8647 64 66.7966 64 67.5317 63.6955C68.5118 63.2895 69.2905 62.5108 69.6965 61.5307C69.8818 61.0833 69.9543 60.563 69.9827 59.804C70.0244 58.6886 70.5964 57.6562 71.5629 57.0981C72.5296 56.5399 73.7098 56.5607 74.6967 57.0823C75.3681 57.4372 75.855 57.6345 76.3351 57.6977C77.3868 57.8362 78.4506 57.5511 79.2922 56.9053C79.9234 56.421 80.3894 55.6139 81.3213 53.9999C82.2532 52.3858 82.7191 51.5788 82.8229 50.7899C82.9614 49.7381 82.6764 48.6744 82.0306 47.8328C81.7358 47.4486 81.3215 47.1256 80.6784 46.7216C79.7333 46.1277 79.1252 45.1161 79.1252 43.9998C79.1253 42.8837 79.7334 41.8722 80.6784 41.2784C81.3216 40.8743 81.736 40.5513 82.0308 40.1671C82.6766 39.3255 82.9616 38.2617 82.8231 37.2099C82.7193 36.4211 82.2533 35.6141 81.3215 34C80.3896 32.3859 79.9236 31.5789 79.2924 31.0945C78.4508 30.4487 77.387 30.1637 76.3353 30.3022C75.8551 30.3654 75.3683 30.5627 74.6969 30.9176C73.71 31.4392 72.5298 31.46 71.5631 30.9019C70.5965 30.3438 70.0244 29.3113 69.9827 28.1959C69.9543 27.437 69.8818 26.9167 69.6965 26.4693C69.2905 25.4892 68.5118 24.7105 67.5317 24.3045Z" stroke="#FF0000" stroke-width="4"/>
<g filter="url(#filter0_d_5643_35029)">
<path d="M7.74574 45.5117C6.82482 44.7141 6.82482 43.2855 7.74574 42.4879L22.6907 29.5452C23.986 28.4235 26 29.3436 26 31.0571V56.9425C26 58.656 23.986 59.5761 22.6907 58.4544L7.74574 45.5117Z" fill="white"/>
</g>
<defs>
<filter id="filter0_d_5643_35029" x="1.05518" y="29.0527" width="24.9448" height="29.8936" filterUnits="userSpaceOnUse" color-interpolation-filters="sRGB">
<feFlood flood-opacity="0" result="BackgroundImageFix"/>
<feColorMatrix in="SourceAlpha" type="matrix" values="0 0 0 0 0 0 0 0 0 0 0 0 0 0 0 0 0 0 127 0" result="hardAlpha"/>
<feOffset dx="-6"/>
<feComposite in2="hardAlpha" operator="out"/>
<feColorMatrix type="matrix" values="0 0 0 0 1 0 0 0 0 0 0 0 0 0 0 0 0 0 1 0"/>
<feBlend mode="normal" in2="BackgroundImageFix" result="effect1_dropShadow_5643_35029"/>
<feBlend mode="normal" in="SourceGraphic" in2="effect1_dropShadow_5643_35029" result="shape"/>
</filter>
</defs>
</svg>
