<svg width="12" height="13" viewBox="0 0 12 13" fill="none" xmlns="http://www.w3.org/2000/svg">
<g id="icon">
<circle id="Vector" cx="6" cy="6.5" r="1.5" stroke="#FF0000"/>
<path id="Vector_2" d="M6.88292 1.57612C6.69915 1.5 6.46618 1.5 6.00024 1.5C5.5343 1.5 5.30133 1.5 5.11755 1.57612C4.87253 1.67761 4.67785 1.87229 4.57636 2.11732C4.53003 2.22917 4.5119 2.35925 4.5048 2.549C4.49437 2.82784 4.35137 3.08595 4.10972 3.22547C3.86806 3.36498 3.57304 3.35977 3.32634 3.22938C3.15847 3.14065 3.03675 3.09131 2.91671 3.07551C2.65376 3.04089 2.38783 3.11215 2.17742 3.2736C2.01962 3.39469 1.90313 3.59645 1.67016 3.99997C1.43719 4.40348 1.3207 4.60524 1.29474 4.80245C1.26012 5.0654 1.33138 5.33133 1.49283 5.54174C1.56653 5.63778 1.6701 5.71851 1.83084 5.81951C2.06714 5.96799 2.21919 6.22093 2.21917 6.50001C2.21916 6.77906 2.06712 7.03196 1.83084 7.18042C1.67007 7.28144 1.56648 7.36218 1.49278 7.45823C1.33133 7.66864 1.26007 7.93457 1.29469 8.19751C1.32066 8.39472 1.43714 8.59648 1.67011 9C1.90308 9.40352 2.01957 9.60528 2.17738 9.72637C2.38779 9.88782 2.65372 9.95907 2.91666 9.92446C3.03669 9.90866 3.1584 9.85932 3.32626 9.7706C3.57298 9.6402 3.86802 9.63499 4.10969 9.77452C4.35136 9.91405 4.49437 10.1722 4.5048 10.451C4.5119 10.6408 4.53003 10.7708 4.57636 10.8827C4.67785 11.1277 4.87253 11.3224 5.11755 11.4239C5.30133 11.5 5.5343 11.5 6.00024 11.5C6.46618 11.5 6.69915 11.5 6.88292 11.4239C7.12795 11.3224 7.32262 11.1277 7.42412 10.8827C7.47045 10.7708 7.48858 10.6407 7.49568 10.451C7.5061 10.1722 7.64909 9.91405 7.89073 9.77452C8.1324 9.63497 8.42746 9.64018 8.67418 9.77058C8.84203 9.85929 8.96374 9.90862 9.08377 9.92442C9.34671 9.95904 9.61264 9.88778 9.82305 9.72633C9.98086 9.60524 10.0973 9.40348 10.3303 8.99997C10.5633 8.59645 10.6798 8.39469 10.7057 8.19748C10.7404 7.93453 10.6691 7.6686 10.5076 7.45819C10.4339 7.36215 10.3304 7.28141 10.1696 7.1804C9.93332 7.03193 9.78129 6.77902 9.7813 6.49996C9.78132 6.22092 9.93335 5.96804 10.1696 5.81959C10.3304 5.71857 10.434 5.63783 10.5077 5.54177C10.6691 5.33136 10.7404 5.06543 10.7058 4.80249C10.6798 4.60528 10.5633 4.40352 10.3304 4C10.0974 3.59648 9.98091 3.39472 9.8231 3.27363C9.61269 3.11218 9.34676 3.04092 9.08381 3.07554C8.96379 3.09134 8.84207 3.14068 8.67421 3.2294C8.4275 3.3598 8.13245 3.36501 7.89078 3.22548C7.64911 3.08595 7.5061 2.82783 7.49568 2.54897C7.48858 2.35924 7.47045 2.22917 7.42412 2.11732C7.32262 1.87229 7.12795 1.67761 6.88292 1.57612Z" stroke="#FF0000"/>
</g>
</svg>
