<svg width="74" height="22" viewBox="0 0 74 22" fill="none" xmlns="http://www.w3.org/2000/svg">
<rect x="4.5" y="0.5" width="69" height="21" rx="3.5" fill="white"/>
<rect x="4.5" y="0.5" width="69" height="21" rx="3.5" stroke="#FF0000"/>
<g clip-path="url(#clip0_5643_35022)">
<circle cx="16" cy="11" r="1.5" stroke="#FF0000"/>
<path d="M16.8829 6.07612C16.6992 6 16.4662 6 16.0002 6C15.5343 6 15.3013 6 15.1176 6.07612C14.8725 6.17761 14.6779 6.37229 14.5764 6.61732C14.53 6.72917 14.5119 6.85925 14.5048 7.049C14.4944 7.32784 14.3514 7.58595 14.1097 7.72547C13.8681 7.86498 13.573 7.85977 13.3263 7.72938C13.1585 7.64065 13.0367 7.59131 12.9167 7.57551C12.6538 7.54089 12.3878 7.61215 12.1774 7.7736C12.0196 7.89469 11.9031 8.09645 11.6702 8.49997C11.4372 8.90348 11.3207 9.10524 11.2947 9.30245C11.2601 9.5654 11.3314 9.83133 11.4928 10.0417C11.5665 10.1378 11.6701 10.2185 11.8308 10.3195C12.0671 10.468 12.2192 10.7209 12.2192 11C12.2192 11.2791 12.0671 11.532 11.8308 11.6804C11.6701 11.7814 11.5665 11.8622 11.4928 11.9582C11.3313 12.1686 11.2601 12.4346 11.2947 12.6975C11.3207 12.8947 11.4371 13.0965 11.6701 13.5C11.9031 13.9035 12.0196 14.1053 12.1774 14.2264C12.3878 14.3878 12.6537 14.4591 12.9167 14.4245C13.0367 14.4087 13.1584 14.3593 13.3263 14.2706C13.573 14.1402 13.868 14.135 14.1097 14.2745C14.3514 14.414 14.4944 14.6722 14.5048 14.951C14.5119 15.1408 14.53 15.2708 14.5764 15.3827C14.6779 15.6277 14.8725 15.8224 15.1176 15.9239C15.3013 16 15.5343 16 16.0002 16C16.4662 16 16.6992 16 16.8829 15.9239C17.1279 15.8224 17.3226 15.6277 17.4241 15.3827C17.4705 15.2708 17.4886 15.1407 17.4957 14.951C17.5061 14.6722 17.6491 14.414 17.8907 14.2745C18.1324 14.135 18.4275 14.1402 18.6742 14.2706C18.842 14.3593 18.9637 14.4086 19.0838 14.4244C19.3467 14.459 19.6126 14.3878 19.8231 14.2263C19.9809 14.1052 20.0973 13.9035 20.3303 13.5C20.5633 13.0964 20.6798 12.8947 20.7057 12.6975C20.7404 12.4345 20.6691 12.1686 20.5076 11.9582C20.4339 11.8621 20.3304 11.7814 20.1696 11.6804C19.9333 11.5319 19.7813 11.279 19.7813 11C19.7813 10.7209 19.9333 10.468 20.1696 10.3196C20.3304 10.2186 20.434 10.1378 20.5077 10.0418C20.6691 9.83136 20.7404 9.56543 20.7058 9.30249C20.6798 9.10528 20.5633 8.90352 20.3304 8.5C20.0974 8.09648 19.9809 7.89472 19.8231 7.77363C19.6127 7.61218 19.3468 7.54092 19.0838 7.57554C18.9638 7.59134 18.8421 7.64068 18.6742 7.7294C18.4275 7.8598 18.1325 7.86501 17.8908 7.72548C17.6491 7.58595 17.5061 7.32783 17.4957 7.04897C17.4886 6.85924 17.4704 6.72917 17.4241 6.61732C17.3226 6.37229 17.1279 6.17761 16.8829 6.07612Z" stroke="#FF0000"/>
</g>
<g filter="url(#filter0_d_5643_35022)">
<path d="M1.93644 11.3779C1.7062 11.1785 1.7062 10.8214 1.93644 10.622L5.67267 7.38631C5.9965 7.10587 6.5 7.3359 6.5 7.76427V14.2356C6.5 14.664 5.9965 14.894 5.67267 14.6136L1.93644 11.3779Z" fill="white"/>
</g>
<defs>
<filter id="filter0_d_5643_35022" x="0.263672" y="7.26367" width="6.23633" height="7.47266" filterUnits="userSpaceOnUse" color-interpolation-filters="sRGB">
<feFlood flood-opacity="0" result="BackgroundImageFix"/>
<feColorMatrix in="SourceAlpha" type="matrix" values="0 0 0 0 0 0 0 0 0 0 0 0 0 0 0 0 0 0 127 0" result="hardAlpha"/>
<feOffset dx="-1.5"/>
<feComposite in2="hardAlpha" operator="out"/>
<feColorMatrix type="matrix" values="0 0 0 0 1 0 0 0 0 0 0 0 0 0 0 0 0 0 1 0"/>
<feBlend mode="normal" in2="BackgroundImageFix" result="effect1_dropShadow_5643_35022"/>
<feBlend mode="normal" in="SourceGraphic" in2="effect1_dropShadow_5643_35022" result="shape"/>
</filter>
<clipPath id="clip0_5643_35022">
<rect x="10" y="5" width="12" height="12" rx="5" fill="white"/>
</clipPath>
</defs>
</svg>
